<svg width="12" height="20" viewBox="0 0 12 20" fill="none" xmlns="http://www.w3.org/2000/svg">
<path d="M8.47523 9.99805L1.12523 2.64805C0.875232 2.39805 0.754399 2.10221 0.762732 1.76055C0.771066 1.41888 0.900232 1.12305 1.15023 0.873047C1.40023 0.623047 1.69607 0.498047 2.03773 0.498047C2.3794 0.498047 2.67523 0.623047 2.92523 0.873047L10.6002 8.57305C10.8002 8.77305 10.9502 8.99805 11.0502 9.24805C11.1502 9.49805 11.2002 9.74805 11.2002 9.99805C11.2002 10.248 11.1502 10.498 11.0502 10.748C10.9502 10.998 10.8002 11.223 10.6002 11.423L2.90023 19.123C2.65023 19.373 2.35857 19.4939 2.02523 19.4855C1.6919 19.4772 1.40023 19.348 1.15023 19.098C0.900232 18.848 0.775232 18.5522 0.775232 18.2105C0.775232 17.8689 0.900232 17.573 1.15023 17.323L8.47523 9.99805Z" fill="white" fill-opacity="0.6"/>
</svg>
