<svg width="36" height="36" viewBox="0 0 36 36" fill="none" xmlns="http://www.w3.org/2000/svg">
<mask id="mask0_2586_836" style="mask-type:alpha" maskUnits="userSpaceOnUse" x="0" y="0" width="36" height="36">
<rect width="36" height="36" fill="#D9D9D9"/>
</mask>
<g mask="url(#mask0_2586_836)">
<path d="M11.1375 14.2117L16.725 5.09922C16.875 4.84922 17.0625 4.66797 17.2875 4.55547C17.5125 4.44297 17.75 4.38672 18 4.38672C18.25 4.38672 18.4875 4.44297 18.7125 4.55547C18.9375 4.66797 19.125 4.84922 19.275 5.09922L24.8625 14.2117C25.0125 14.4617 25.0875 14.7242 25.0875 14.9992C25.0875 15.2742 25.025 15.5242 24.9 15.7492C24.775 15.9742 24.6 16.1555 24.375 16.293C24.15 16.4305 23.8875 16.4992 23.5875 16.4992H12.4125C12.1125 16.4992 11.85 16.4305 11.625 16.293C11.4 16.1555 11.225 15.9742 11.1 15.7492C10.975 15.5242 10.9125 15.2742 10.9125 14.9992C10.9125 14.7242 10.9875 14.4617 11.1375 14.2117ZM26.25 32.9992C24.375 32.9992 22.7812 32.343 21.4688 31.0305C20.1562 29.718 19.5 28.1242 19.5 26.2492C19.5 24.3742 20.1562 22.7805 21.4688 21.468C22.7812 20.1555 24.375 19.4992 26.25 19.4992C28.125 19.4992 29.7188 20.1555 31.0312 21.468C32.3438 22.7805 33 24.3742 33 26.2492C33 28.1242 32.3438 29.718 31.0312 31.0305C29.7188 32.343 28.125 32.9992 26.25 32.9992ZM4.5 30.7492V21.7492C4.5 21.3242 4.64375 20.968 4.93125 20.6805C5.21875 20.393 5.575 20.2492 6 20.2492H15C15.425 20.2492 15.7812 20.393 16.0688 20.6805C16.3562 20.968 16.5 21.3242 16.5 21.7492V30.7492C16.5 31.1742 16.3562 31.5305 16.0688 31.818C15.7812 32.1055 15.425 32.2492 15 32.2492H6C5.575 32.2492 5.21875 32.1055 4.93125 31.818C4.64375 31.5305 4.5 31.1742 4.5 30.7492ZM26.25 29.9992C27.3 29.9992 28.1875 29.6367 28.9125 28.9117C29.6375 28.1867 30 27.2992 30 26.2492C30 25.1992 29.6375 24.3117 28.9125 23.5867C28.1875 22.8617 27.3 22.4992 26.25 22.4992C25.2 22.4992 24.3125 22.8617 23.5875 23.5867C22.8625 24.3117 22.5 25.1992 22.5 26.2492C22.5 27.2992 22.8625 28.1867 23.5875 28.9117C24.3125 29.6367 25.2 29.9992 26.25 29.9992ZM15.075 13.4992H20.925L18 8.77422L15.075 13.4992Z" fill="white"/>
</g>
</svg>
