<svg width="10" height="10" viewBox="0 0 10 10" fill="none" xmlns="http://www.w3.org/2000/svg">
<path d="M5.00001 6.06185L1.58334 9.47852C1.43056 9.63129 1.25695 9.70421 1.06251 9.69727C0.868061 9.69032 0.69445 9.61046 0.541672 9.45768C0.388894 9.3049 0.312505 9.12782 0.312505 8.92643C0.312505 8.72504 0.388894 8.54796 0.541672 8.39518L3.93751 4.99935L0.520839 1.58268C0.368061 1.4299 0.295144 1.25282 0.302089 1.05143C0.309033 0.850043 0.388894 0.67296 0.541672 0.520182C0.69445 0.367405 0.871533 0.291016 1.07292 0.291016C1.27431 0.291016 1.45139 0.367405 1.60417 0.520182L5.00001 3.93685L8.41667 0.520182C8.56945 0.367405 8.74653 0.291016 8.94792 0.291016C9.14931 0.291016 9.32639 0.367405 9.47917 0.520182C9.63195 0.67296 9.70834 0.850043 9.70834 1.05143C9.70834 1.25282 9.63195 1.4299 9.47917 1.58268L6.06251 4.99935L9.47917 8.41602C9.63195 8.56879 9.70834 8.7424 9.70834 8.93685C9.70834 9.13129 9.63195 9.3049 9.47917 9.45768C9.32639 9.61046 9.14931 9.68685 8.94792 9.68685C8.74653 9.68685 8.56945 9.61046 8.41667 9.45768L5.00001 6.06185Z" fill="white"/>
</svg>
