<svg width="28" height="28" viewBox="0 0 28 28" fill="none" xmlns="http://www.w3.org/2000/svg">
<mask id="mask0_1660_6937" style="mask-type:alpha" maskUnits="userSpaceOnUse" x="0" y="0" width="28" height="28">
<rect width="28" height="28" fill="#D9D9D9"/>
</mask>
<g mask="url(#mask0_1660_6937)">
<path d="M8.16683 19.833H10.5002C10.8307 19.833 11.1078 19.9448 11.3314 20.1684C11.555 20.392 11.6668 20.6691 11.6668 20.9997C11.6668 21.3302 11.555 21.6073 11.3314 21.8309C11.1078 22.0545 10.8307 22.1663 10.5002 22.1663H7.00016C6.66961 22.1663 6.39252 22.0545 6.16891 21.8309C5.9453 21.6073 5.8335 21.3302 5.8335 20.9997V17.4997C5.8335 17.1691 5.9453 16.892 6.16891 16.6684C6.39252 16.4448 6.66961 16.333 7.00016 16.333C7.33072 16.333 7.6078 16.4448 7.83141 16.6684C8.05502 16.892 8.16683 17.1691 8.16683 17.4997V19.833ZM8.16683 8.16634V10.4997C8.16683 10.8302 8.05502 11.1073 7.83141 11.3309C7.6078 11.5545 7.33072 11.6663 7.00016 11.6663C6.66961 11.6663 6.39252 11.5545 6.16891 11.3309C5.9453 11.1073 5.8335 10.8302 5.8335 10.4997V6.99967C5.8335 6.66912 5.9453 6.39204 6.16891 6.16842C6.39252 5.94481 6.66961 5.83301 7.00016 5.83301H10.5002C10.8307 5.83301 11.1078 5.94481 11.3314 6.16842C11.555 6.39204 11.6668 6.66912 11.6668 6.99967C11.6668 7.33023 11.555 7.60731 11.3314 7.83092C11.1078 8.05454 10.8307 8.16634 10.5002 8.16634H8.16683ZM19.8335 8.16634H17.5002C17.1696 8.16634 16.8925 8.05454 16.6689 7.83092C16.4453 7.60731 16.3335 7.33023 16.3335 6.99967C16.3335 6.66912 16.4453 6.39204 16.6689 6.16842C16.8925 5.94481 17.1696 5.83301 17.5002 5.83301H21.0002C21.3307 5.83301 21.6078 5.94481 21.8314 6.16842C22.055 6.39204 22.1668 6.66912 22.1668 6.99967V10.4997C22.1668 10.8302 22.055 11.1073 21.8314 11.3309C21.6078 11.5545 21.3307 11.6663 21.0002 11.6663C20.6696 11.6663 20.3925 11.5545 20.1689 11.3309C19.9453 11.1073 19.8335 10.8302 19.8335 10.4997V8.16634ZM19.8335 22.1663H17.5002C17.1696 22.1663 16.8925 22.0545 16.6689 21.8309C16.4453 21.6073 16.3335 21.3302 16.3335 20.9997C16.3335 20.6691 16.4453 20.392 16.6689 20.1684C16.8925 19.9448 17.1696 19.833 17.5002 19.833H19.8335V17.4997C19.8335 17.1691 19.9453 16.892 20.1689 16.6684C20.3925 16.4448 20.6696 16.333 21.0002 16.333C21.3307 16.333 21.6078 16.4448 21.8314 16.6684C22.055 16.892 22.1668 17.1691 22.1668 17.4997V19.833H24.5002C24.8307 19.833 25.1078 19.9448 25.3314 20.1684C25.555 20.392 25.6668 20.6691 25.6668 20.9997C25.6668 21.3302 25.555 21.6073 25.3314 21.8309C25.1078 22.0545 24.8307 22.1663 24.5002 22.1663H22.1668V24.4997C22.1668 24.8302 22.055 25.1073 21.8314 25.3309C21.6078 25.5545 21.3307 25.6663 21.0002 25.6663C20.6696 25.6663 20.3925 25.5545 20.1689 25.3309C19.9453 25.1073 19.8335 24.8302 19.8335 24.4997V22.1663Z" fill="white"/>
</g>
</svg>
