<svg width="36" height="36" viewBox="0 0 36 36" fill="none" xmlns="http://www.w3.org/2000/svg">
<mask id="mask0_2586_848" style="mask-type:alpha" maskUnits="userSpaceOnUse" x="0" y="0" width="36" height="36">
<rect width="36" height="36" fill="#D9D9D9"/>
</mask>
<g mask="url(#mask0_2586_848)">
<path d="M31.7584 31.2251C31.6029 31.2251 31.4501 31.1959 31.3001 31.1374C31.1501 31.0791 31.0084 30.9834 30.8749 30.8501L27.0251 27H11.5001C10.8126 27 10.224 26.7553 9.73425 26.2658C9.24475 25.776 9 25.1874 9 24.4999V22.0001H25.5C26.1875 22.0001 26.776 21.7552 27.2655 21.2655C27.7553 20.776 28.0001 20.1875 28.0001 19.5V9H30.4999C31.1874 9 31.776 9.24475 32.2658 9.73425C32.7553 10.224 33 10.8126 33 11.5001V29.9625C33 30.3457 32.8709 30.652 32.6126 30.8813C32.3541 31.1105 32.0694 31.2251 31.7584 31.2251ZM5.50013 19.4625L7.96238 16.9999H22.9999V5.50012H5.50013V19.4625ZM4.24163 23.7499C3.93063 23.7499 3.64588 23.6354 3.38738 23.4064C3.12913 23.1771 3 22.8709 3 22.4876V5.50012C3 4.81262 3.24475 4.224 3.73425 3.73425C4.224 3.24475 4.81263 3 5.50013 3H22.9999C23.6874 3 24.276 3.24475 24.7658 3.73425C25.2553 4.224 25.5 4.81262 25.5 5.50012V16.9999C25.5 17.6874 25.2553 18.276 24.7658 18.7658C24.276 19.2553 23.6874 19.5 22.9999 19.5H9L5.12513 23.3749C4.99163 23.5084 4.84988 23.6043 4.69988 23.6625C4.54988 23.7208 4.39713 23.7499 4.24163 23.7499Z" fill="white"/>
</g>
</svg>
