<svg width="28" height="28" viewBox="0 0 28 28" fill="none" xmlns="http://www.w3.org/2000/svg">
<mask id="mask0_1660_6934" style="mask-type:alpha" maskUnits="userSpaceOnUse" x="0" y="0" width="28" height="28">
<rect width="28" height="28" fill="#D9D9D9"/>
</mask>
<g mask="url(#mask0_1660_6934)">
<path d="M5.75628 21.0293C5.46245 21.0293 5.21615 20.9175 5.01739 20.6939C4.81862 20.4703 4.71924 20.1932 4.71924 19.8626C4.71924 19.5321 4.81862 19.255 5.01739 19.0314C5.21615 18.8078 5.46245 18.696 5.75628 18.696H22.3489C22.6427 18.696 22.889 18.8078 23.0878 19.0314C23.2865 19.255 23.3859 19.5321 23.3859 19.8626C23.3859 20.1932 23.2865 20.4703 23.0878 20.6939C22.889 20.9175 22.6427 21.0293 22.3489 21.0293H5.75628ZM5.75628 15.196C5.46245 15.196 5.21615 15.0842 5.01739 14.8605C4.81862 14.6369 4.71924 14.3599 4.71924 14.0293C4.71924 13.6987 4.81862 13.4217 5.01739 13.198C5.21615 12.9744 5.46245 12.8626 5.75628 12.8626H22.3489C22.6427 12.8626 22.889 12.9744 23.0878 13.198C23.2865 13.4217 23.3859 13.6987 23.3859 14.0293C23.3859 14.3599 23.2865 14.6369 23.0878 14.8605C22.889 15.0842 22.6427 15.196 22.3489 15.196H5.75628ZM5.75628 9.36263C5.46245 9.36263 5.21615 9.25082 5.01739 9.02721C4.81862 8.8036 4.71924 8.52652 4.71924 8.19596C4.71924 7.86541 4.81862 7.58832 5.01739 7.36471C5.21615 7.1411 5.46245 7.0293 5.75628 7.0293H22.3489C22.6427 7.0293 22.889 7.1411 23.0878 7.36471C23.2865 7.58832 23.3859 7.86541 23.3859 8.19596C23.3859 8.52652 23.2865 8.8036 23.0878 9.02721C22.889 9.25082 22.6427 9.36263 22.3489 9.36263H5.75628Z" fill="white"/>
</g>
</svg>
