<svg width="36" height="36" viewBox="0 0 36 36" fill="none" xmlns="http://www.w3.org/2000/svg">
<mask id="mask0_2586_844" style="mask-type:alpha" maskUnits="userSpaceOnUse" x="0" y="0" width="36" height="36">
<rect width="36" height="36" fill="#D9D9D9"/>
</mask>
<g mask="url(#mask0_2586_844)">
<path d="M9 26.55C7.575 25.25 6.46875 23.7313 5.68125 21.9938C4.89375 20.2563 4.5 18.425 4.5 16.5C4.5 12.75 5.8125 9.5625 8.4375 6.9375C11.0625 4.3125 14.25 3 18 3C21.125 3 23.8938 3.91875 26.3063 5.75625C28.7188 7.59375 30.2875 9.9875 31.0125 12.9375L32.9625 20.625C33.0875 21.1 33 21.5312 32.7 21.9188C32.4 22.3062 32 22.5 31.5 22.5H28.5V27C28.5 27.825 28.2063 28.5312 27.6188 29.1188C27.0312 29.7063 26.325 30 25.5 30H22.5V31.5C22.5 31.925 22.3563 32.2812 22.0688 32.5687C21.7812 32.8562 21.425 33 21 33C20.575 33 20.2188 32.8562 19.9313 32.5687C19.6438 32.2812 19.5 31.925 19.5 31.5V28.5C19.5 28.075 19.6438 27.7188 19.9313 27.4313C20.2188 27.1438 20.575 27 21 27H25.5V21C25.5 20.575 25.6438 20.2188 25.9313 19.9313C26.2188 19.6438 26.575 19.5 27 19.5H29.55L28.125 13.6875C27.55 11.4125 26.325 9.5625 24.45 8.1375C22.575 6.7125 20.425 6 18 6C15.1 6 12.625 7.0125 10.575 9.0375C8.525 11.0625 7.5 13.525 7.5 16.425C7.5 17.925 7.80625 19.35 8.41875 20.7C9.03125 22.05 9.9 23.25 11.025 24.3L12 25.2V31.5C12 31.925 11.8563 32.2812 11.5688 32.5687C11.2812 32.8562 10.925 33 10.5 33C10.075 33 9.71875 32.8562 9.43125 32.5687C9.14375 32.2812 9 31.925 9 31.5V26.55ZM18 24C18.425 24 18.7813 23.8563 19.0688 23.5688C19.3563 23.2812 19.5 22.925 19.5 22.5C19.5 22.075 19.3563 21.7188 19.0688 21.4313C18.7813 21.1438 18.425 21 18 21C17.575 21 17.2188 21.1438 16.9313 21.4313C16.6438 21.7188 16.5 22.075 16.5 22.5C16.5 22.925 16.6438 23.2812 16.9313 23.5688C17.2188 23.8563 17.575 24 18 24ZM18.1125 11.1375C18.6625 11.1375 19.1188 11.2875 19.4813 11.5875C19.8438 11.8875 20.025 12.275 20.025 12.75C20.025 13.15 19.9187 13.5312 19.7062 13.8938C19.4937 14.2563 19.075 14.7625 18.45 15.4125C17.975 15.9125 17.6313 16.3563 17.4188 16.7438C17.2063 17.1313 17.0625 17.575 16.9875 18.075C16.9375 18.375 17.0188 18.6375 17.2313 18.8625C17.4438 19.0875 17.7125 19.2 18.0375 19.2C18.3125 19.2 18.5688 19.1063 18.8063 18.9188C19.0438 18.7313 19.2 18.475 19.275 18.15C19.35 17.85 19.4688 17.5562 19.6313 17.2687C19.7938 16.9812 20.05 16.65 20.4 16.275C21.2 15.4 21.725 14.7375 21.975 14.2875C22.225 13.8375 22.35 13.325 22.35 12.75C22.35 11.7 21.9438 10.8125 21.1313 10.0875C20.3188 9.3625 19.3125 9 18.1125 9C17.3125 9 16.5562 9.19375 15.8438 9.58125C15.1313 9.96875 14.5625 10.5 14.1375 11.175C13.9875 11.425 13.9812 11.6875 14.1187 11.9625C14.2562 12.2375 14.4625 12.4375 14.7375 12.5625C15.0125 12.6875 15.2812 12.7063 15.5438 12.6187C15.8063 12.5312 16.0375 12.35 16.2375 12.075C16.4875 11.775 16.775 11.5437 17.1 11.3813C17.425 11.2188 17.7625 11.1375 18.1125 11.1375Z" fill="white"/>
</g>
</svg>
