<svg width="36" height="36" viewBox="0 0 36 36" fill="none" xmlns="http://www.w3.org/2000/svg">
<mask id="mask0_2586_840" style="mask-type:alpha" maskUnits="userSpaceOnUse" x="0" y="0" width="36" height="36">
<rect width="36" height="36" fill="#D9D9D9"/>
</mask>
<g mask="url(#mask0_2586_840)">
<path d="M9 33C8.175 33 7.46875 32.7063 6.88125 32.1188C6.29375 31.5312 6 30.825 6 30V24C6 23.175 6.29375 22.4688 6.88125 21.8813C7.46875 21.2938 8.175 21 9 21H27C27.825 21 28.5312 21.2938 29.1188 21.8813C29.7063 22.4688 30 23.175 30 24V30C30 30.825 29.7063 31.5312 29.1188 32.1188C28.5312 32.7063 27.825 33 27 33H9ZM10.5 27H25.5C25.925 27 26.2812 26.8563 26.5688 26.5688C26.8563 26.2812 27 25.925 27 25.5C27 25.075 26.8563 24.7188 26.5688 24.4313C26.2812 24.1438 25.925 24 25.5 24H10.5C10.075 24 9.71875 24.1438 9.43125 24.4313C9.14375 24.7188 9 25.075 9 25.5C9 25.925 9.14375 26.2812 9.43125 26.5688C9.71875 26.8563 10.075 27 10.5 27ZM16.7625 19.275L11.2125 11.5125C10.9875 11.1875 10.8313 10.8313 10.7438 10.4438C10.6562 10.0563 10.6375 9.6625 10.6875 9.2625C10.9875 7.4375 11.8125 5.9375 13.1625 4.7625C14.5125 3.5875 16.125 3 18 3C19.875 3 21.4875 3.5875 22.8375 4.7625C24.1875 5.9375 25.0125 7.4375 25.3125 9.2625C25.3625 9.6625 25.3438 10.0563 25.2563 10.4438C25.1688 10.8313 25.0125 11.1875 24.7875 11.5125L19.2375 19.275C18.9375 19.7 18.525 19.9125 18 19.9125C17.475 19.9125 17.0625 19.7 16.7625 19.275ZM18 16.8L22.5 10.5C22.5 9.25 22.0625 8.1875 21.1875 7.3125C20.3125 6.4375 19.25 6 18 6C16.75 6 15.6875 6.4375 14.8125 7.3125C13.9375 8.1875 13.5 9.25 13.5 10.5L18 16.8Z" fill="white"/>
</g>
</svg>
