<svg width="11" height="13" viewBox="0 0 11 13" fill="none" xmlns="http://www.w3.org/2000/svg">
<path d="M6.56205 2.24847C6.52798 2.22027 6.96619 1.56797 7.0009 1.51252C7.27064 1.08173 7.53313 0.646546 7.79688 0.211993L7.88711 0.0600405C7.89754 0.0382011 7.91422 0.0198953 7.93506 0.00740541C7.95718 -0.000646403 7.98118 -0.00216974 8.00415 0.00301915C8.36003 0.0556542 8.81749 0.347654 8.6588 0.763408C8.5975 0.902805 8.49318 1.00539 8.40199 1.12496L8.21932 1.3637C8.11486 1.50243 8.01999 1.64803 7.93538 1.7995C7.76533 2.10059 7.64071 2.42987 7.61673 2.7767C7.61673 2.7767 8.78405 2.4634 9.53207 3.11256C10.2801 3.76173 10.9095 3.61636 10.9095 3.61636C10.9095 3.61636 11.3446 4.0484 10.2088 4.50457C10.2088 4.50457 11.9727 6.23213 10.2331 8.89616C8.49348 11.5602 5.31145 12.7357 5.31145 12.7357C5.31145 12.7357 2.71749 13.8395 1.48519 11.5357C0.252889 9.23202 0.0124857 6.70491 0.0124857 6.70491C0.0124857 6.70491 -0.22918 3.9046 1.41389 2.56052C1.41389 2.56052 2.25972 1.86467 3.20209 1.67262C3.06667 1.35479 3.01677 1.00747 3.05728 0.664717C3.12952 0.112989 3.58888 0.592658 3.58888 0.592658C3.72296 0.733018 3.82612 0.890923 3.97598 1.01969C4.12917 1.15312 4.30303 1.26113 4.49086 1.33957C4.8379 1.48275 5.22374 1.5097 5.56763 1.66416C5.92161 1.823 6.25887 2.00535 6.56205 2.24847Z" fill="#F748C1"/>
</svg>
