<svg width="144" height="32" viewBox="0 0 144 32" fill="none" xmlns="http://www.w3.org/2000/svg">
<path opacity="0.8" d="M4.64076 28.0024C12.7236 23.7943 20.7556 20.5331 29.8604 17.879C40.8438 14.6774 52.26 12.1156 63.7773 10.2052C82.74 7.05986 101.948 5.35466 121.511 4.81902C122.518 4.79145 140.534 4.80216 139.957 6.68932C139.639 7.73127 135.864 7.76564 134.935 7.88571C130.013 8.52197 125.07 8.95633 120.11 9.44849C95.297 11.9109 70.8541 16.9519 48.838 25.9208C47.1139 26.6232 47.2746 26.5343 49.0843 26.1079C53.7645 25.0053 58.3742 23.7629 63.1281 22.8335C70.1684 21.457 77.2376 20.4225 84.4979 19.7711C93.1655 18.9935 101.941 19.08 110.7 18.8746" stroke="#F748C1" stroke-width="8" stroke-linecap="round" stroke-linejoin="round"/>
</svg>
